HIERARCHY
ROOT Pelvis
{
	OFFSET 0.000000 0.000000 0.000000
	CHANNELS 6 Xposition Yposition Zposition Xrotation Yrotation Zrotation
	JOINT LeftUpLeg_virtual
	{
		OFFSET 0.000000 0.000000 0.000000
		CHANNELS 3 Xrotation Yrotation Zrotation
		JOINT LeftUpLeg
		{
			OFFSET 18.735201 -5.666702 -4.541200
			CHANNELS 3 Xrotation Yrotation Zrotation
			JOINT LeftLeg
			{
				OFFSET -0.021200 -31.938179 0.493100
				CHANNELS 3 Xrotation Yrotation Zrotation
				JOINT LeftFoot
				{
					OFFSET 0.021200 -31.938179 -4.336299
					CHANNELS 3 Xrotation Yrotation Zrotation
					JOINT LeftToeBase
					{
						OFFSET 0.943001 -26.722000 15.023500
						CHANNELS 3 Xrotation Yrotation Zrotation
						End Site
						{
							OFFSET 0 0 0
						}
					}
				}
			}
		}
	}
	JOINT RightUpLeg_virtual
	{
		OFFSET 0.000000 0.000000 0.000000
		CHANNELS 3 Xrotation Yrotation Zrotation
		JOINT RightUpLeg
		{
			OFFSET -18.735201 -5.666702 -4.541200
			CHANNELS 3 Xrotation Yrotation Zrotation
			JOINT RightLeg
			{
				OFFSET 0.018946 -31.938133 0.493100
				CHANNELS 3 Xrotation Yrotation Zrotation
				JOINT RightFoot
				{
					OFFSET -0.018946 -31.938126 -4.336299
					CHANNELS 3 Xrotation Yrotation Zrotation
					JOINT RightToeBase
					{
						OFFSET -0.943001 -26.722004 15.023500
						CHANNELS 3 Xrotation Yrotation Zrotation
						End Site
						{
							OFFSET 0 0 0
						}
					}
				}
			}
		}
	}
	JOINT Hips_virtual
	{
		OFFSET 0.000000 0.000000 0.000000
		CHANNELS 3 Xrotation Yrotation Zrotation
		JOINT Hips
		{
			OFFSET -0.000000 -0.000000 -0.000000
			CHANNELS 3 Xrotation Yrotation Zrotation
			JOINT Spine
			{
				OFFSET 0.000000 10.199997 -0.299500
				CHANNELS 3 Xrotation Yrotation Zrotation
				JOINT Spine1
				{
					OFFSET 0.000000 11.900002 -1.516600
					CHANNELS 3 Xrotation Yrotation Zrotation
					JOINT Spine2
					{
						OFFSET 0.000000 13.600006 -2.842500
						CHANNELS 3 Xrotation Yrotation Zrotation
						JOINT Neck_virtual
						{
							OFFSET 0.000000 0.000000 0.000000
							CHANNELS 3 Xrotation Yrotation Zrotation
							JOINT Neck
							{
								OFFSET 0.000000 9.624100 -2.890100
								CHANNELS 3 Xrotation Yrotation Zrotation
								JOINT Head
								{
									OFFSET 0.000000 14.068802 -1.351900
									CHANNELS 3 Xrotation Yrotation Zrotation
									End Site
									{
										OFFSET 0 0 0
									}
								}
							}
						}
						JOINT LeftShoulder_virtual
						{
							OFFSET 0.000000 0.000000 0.000000
							CHANNELS 3 Xrotation Yrotation Zrotation
							JOINT LeftShoulder
							{
								OFFSET 15.263000 10.923401 -0.547700
								CHANNELS 3 Xrotation Yrotation Zrotation
								JOINT LeftArm
								{
									OFFSET 25.438599 -2.830597 -13.032500
									CHANNELS 3 Xrotation Yrotation Zrotation
									JOINT LeftForeArm
									{
										OFFSET 29.960503 0.000000 0.000000
										CHANNELS 3 Xrotation Yrotation Zrotation
										JOINT LeftHand
										{
											OFFSET 27.849251 0.000000 0.000000
											CHANNELS 3 Xrotation Yrotation Zrotation
											End Site
											{
												OFFSET 0 0 0
											}
										}
									}
								}
							}
						}
						JOINT RightShoulder_virtual
						{
							OFFSET 0.000000 0.000000 0.000000
							CHANNELS 3 Xrotation Yrotation Zrotation
							JOINT RightShoulder
							{
								OFFSET -15.263000 10.923401 -0.547700
								CHANNELS 3 Xrotation Yrotation Zrotation
								JOINT RightArm
								{
									OFFSET -25.438599 -2.830597 -13.032500
									CHANNELS 3 Xrotation Yrotation Zrotation
									JOINT RightForeArm
									{
										OFFSET -29.960503 0.000000 0.000000
										CHANNELS 3 Xrotation Yrotation Zrotation
										JOINT RightHand
										{
											OFFSET -27.849251 0.000000 0.000000
											CHANNELS 3 Xrotation Yrotation Zrotation
											End Site
											{
												OFFSET 0 0 0
											}
										}
									}
								}
							}
						}
					}
				}
			}
		}
	}
}
MOTION
Frames: 5
Frame Time: 0.03333333
0.846591 56.680817 -3.662079 0.000000 0.000000 0.000000 -179.683644 -5.072188 171.420809 -91.136874 -23.981392 14.042749 124.405598 1.272924 2.319972 -27.486951 5.462355 -17.262443 0.000000 0.000000 0.000000 -179.683644 -5.072188 171.420809 -58.698379 17.362293 -29.501175 109.249579 5.925438 -0.118325 -28.886858 -10.554370 31.062170 0.000000 0.000000 0.000000 -179.683644 -5.072188 171.420809 0.000000 0.000000 0.000002 4.027207 3.141587 -2.600426 8.159355 6.853758 -4.619808 0.000000 0.000000 0.000000 8.159351 6.853758 -4.619804 -0.469470 5.710214 1.189898 0.000000 0.000000 0.000000 8.159351 6.853758 -4.619804 0.999378 -15.480031 -11.858112 2.922994 -1.021115 -32.113415 39.900008 -32.869968 -2.079704 0.000000 0.000000 0.000000 8.159351 6.853758 -4.619804 3.296034 -18.277602 12.218456 12.766698 -13.255689 60.143395 30.211877 39.427004 -4.032021 0.000000 0.000000 0.000000 
0.837887 56.678444 -3.668903 0.000000 0.000000 0.000000 -179.743067 -5.108280 171.385989 -91.254401 -23.999007 13.995395 124.408098 1.261870 2.319310 -27.459922 5.440251 -17.233460 0.000000 0.000000 0.000000 -179.743067 -5.108280 171.385989 -58.695866 17.323725 -29.501127 109.234327 5.895035 -0.111102 -28.911504 -10.562823 31.059995 0.000000 0.000000 0.000000 -179.743067 -5.108280 171.385989 0.000000 0.000000 0.000000 4.005260 3.139948 -2.596494 8.115209 6.854067 -4.611593 0.000000 0.000000 0.000000 8.115217 6.854065 -4.611579 -0.477484 5.708263 1.192677 0.000000 0.000000 0.000000 8.115217 6.854065 -4.611579 0.983007 -15.541322 -11.895344 2.965894 -0.975593 -32.060894 39.955575 -32.910587 -2.104587 0.000000 0.000000 0.000000 8.115217 6.854065 -4.611579 3.299768 -18.345002 12.110437 12.768933 -13.198103 60.241381 30.218253 39.297620 -4.016848 0.000000 0.000000 0.000000 
0.836887 56.673630 -3.678646 0.000000 0.000000 0.000000 -179.794129 -5.112733 171.359269 -91.330114 -24.008772 14.020011 124.421895 1.229790 2.317382 -27.463834 5.420243 -17.194836 0.000000 0.000000 0.000000 -179.794129 -5.112733 171.359269 -58.726622 17.288448 -29.483225 109.238296 5.873210 -0.106209 -28.945614 -10.565642 31.044781 0.000000 0.000000 0.000000 -179.794129 -5.112733 171.359269 0.000000 0.000000 -0.000001 3.985209 3.139082 -2.597360 8.075134 6.853915 -4.612894 0.000000 0.000000 0.000000 8.075132 6.853917 -4.612896 -0.483239 5.706976 1.193242 0.000000 0.000000 0.000000 8.075132 6.853917 -4.612896 0.985486 -15.558947 -11.899326 3.003092 -0.913855 -31.997066 40.016552 -32.998215 -2.121966 0.000000 0.000000 0.000000 8.075132 6.853917 -4.612896 3.306608 -18.371395 12.069626 12.769769 -13.150474 60.289212 30.289939 39.220278 -4.043916 0.000000 0.000000 0.000000 
0.832923 56.667038 -3.688065 0.000000 0.000000 0.000000 -179.832542 -5.120086 171.352262 -91.384304 -24.000127 14.024730 124.433643 1.219216 2.316619 -27.469672 5.411427 -17.172369 0.000000 0.000000 0.000000 -179.832542 -5.120086 171.352262 -58.755097 17.258365 -29.515563 109.251348 5.868011 -0.105523 -28.978290 -10.554912 31.007399 0.000000 0.000000 0.000000 -179.832542 -5.120086 171.352262 0.000000 0.000001 -0.000001 3.972337 3.138044 -2.606144 8.049899 6.852350 -4.630621 0.000000 0.000000 0.000000 8.049906 6.852360 -4.630623 -0.488081 5.706416 1.198090 0.000000 0.000000 0.000000 8.049906 6.852360 -4.630623 0.994519 -15.576600 -11.870946 3.023599 -0.847046 -31.927234 40.033026 -33.111644 -2.139830 0.000000 0.000000 0.000000 8.049906 6.852360 -4.630623 3.329658 -18.400647 12.086236 12.758466 -13.093549 60.290018 30.367810 39.179591 -4.060863 0.000000 0.000000 0.000000 
0.829547 56.664818 -3.698982 0.000000 0.000000 0.000000 -179.849358 -5.143898 171.338465 -91.421017 -23.999856 14.032509 124.443287 1.195728 2.314810 -27.473739 5.397418 -17.140800 0.000000 0.000000 0.000000 -179.849358 -5.143898 171.338465 -58.741355 17.207997 -29.556278 109.259114 5.865910 -0.106446 -29.007875 -10.546026 30.978610 0.000000 0.000000 0.000000 -179.849358 -5.143898 171.338465 0.000000 0.000000 0.000000 3.964827 3.137900 -2.606093 8.034906 6.853201 -4.630683 0.000000 0.000000 0.000000 8.034918 6.853197 -4.630678 -0.476436 5.707056 1.191714 0.000000 0.000000 0.000000 8.034918 6.853197 -4.630678 0.976900 -15.609395 -11.916644 3.043015 -0.742986 -31.824495 40.043364 -33.239122 -2.145948 0.000000 0.000000 0.000000 8.034918 6.853197 -4.630678 3.336396 -18.459139 12.041842 12.740245 -13.038981 60.364870 30.366195 39.076608 -4.084386 0.000000 0.000000 0.000000 
